<svg viewBox="0 0 240 240" xmlns="http://www.w3.org/2000/svg"><defs><style>.a97a750f-c54f-498c-92fb-c2ec8e0269a9,.b9207086-708e-4707-869a-d5921b4f54bf,.be26e747-a48e-4296-ad71-65062b6aef9d{fill:#fff;}.a276940e-96f9-47c8-9ffa-0d96827a9bbf,.a58d5af6-c7fd-4e87-b254-eced9ebc0d86,.a80efc02-7c74-4a7f-b14b-54cd8944fb8f,.b8d7d3de-31ac-4b40-998b-da69ba9b1239,.b9207086-708e-4707-869a-d5921b4f54bf,.bc30e085-6d78-4ce8-b8ea-89f120e76302,.be26e747-a48e-4296-ad71-65062b6aef9d,.e6b1aaa9-5357-4c7d-9788-352cb73084bf,.f787cfd8-d574-4087-a68d-2dec8fe03540{stroke:#16336f;}.a80efc02-7c74-4a7f-b14b-54cd8944fb8f,.b8d7d3de-31ac-4b40-998b-da69ba9b1239,.b9207086-708e-4707-869a-d5921b4f54bf,.f787cfd8-d574-4087-a68d-2dec8fe03540{stroke-miterlimit:10;}.be26e747-a48e-4296-ad71-65062b6aef9d{stroke-linecap:square;stroke-linejoin:bevel;}.a276940e-96f9-47c8-9ffa-0d96827a9bbf,.a58d5af6-c7fd-4e87-b254-eced9ebc0d86,.a80efc02-7c74-4a7f-b14b-54cd8944fb8f,.b8d7d3de-31ac-4b40-998b-da69ba9b1239,.bc30e085-6d78-4ce8-b8ea-89f120e76302,.be91fb3a-0230-4960-8be2-04f616c8b40f,.e6b1aaa9-5357-4c7d-9788-352cb73084bf,.f787cfd8-d574-4087-a68d-2dec8fe03540{fill:none;}.b8d7d3de-31ac-4b40-998b-da69ba9b1239,.e6b1aaa9-5357-4c7d-9788-352cb73084bf{stroke-width:1.43px;}.a276940e-96f9-47c8-9ffa-0d96827a9bbf,.a58d5af6-c7fd-4e87-b254-eced9ebc0d86,.bc30e085-6d78-4ce8-b8ea-89f120e76302,.e6b1aaa9-5357-4c7d-9788-352cb73084bf{stroke-linecap:round;stroke-linejoin:round;}.a58d5af6-c7fd-4e87-b254-eced9ebc0d86{stroke-width:1.34px;}.a80efc02-7c74-4a7f-b14b-54cd8944fb8f{stroke-width:1.36px;}.b5ac8d47-6682-47ad-bc8a-25431bd1b198{fill:#16336f;}.bd6f3825-83a6-400e-91b3-aab48b603edb{fill:#2158c7;}.ea2cd2a3-72f8-418d-87ed-f79e4df3050f{fill:#dedede;}.bc30e085-6d78-4ce8-b8ea-89f120e76302{stroke-width:1.8px;}.a276940e-96f9-47c8-9ffa-0d96827a9bbf{stroke-width:1.57px;}.b74f061a-2ded-48c2-b12f-32913c4ac385{fill:#c0bfbe;}.ee16d0fe-dcce-4bcc-b897-e600269ec589{fill:#fafafa;}</style></defs><title>缺省页小爱</title><g id="b154e7d6-fdef-4f96-8ff7-ca4ccdd345f7"><path d="M160.51,36.91s-5.4,1.19-11.92,17c0,0,8-.68,10.17-5.25s4-9.75,1.75-11.78" class="a97a750f-c54f-498c-92fb-c2ec8e0269a9"></path><path d="M160.51,36.91s-5.4,1.19-11.92,17c0,0,8-.68,10.17-5.25S162.77,38.94,160.51,36.91Z" class="b9207086-708e-4707-869a-d5921b4f54bf"></path><path d="M148.59,53.94s14.15-10.08,11.92-17c0,0,6.12,4.27,7.14,10.52,0,0-10.59,8.64-19.06,6.51" class="a97a750f-c54f-498c-92fb-c2ec8e0269a9"></path><path d="M148.59,53.94s14.15-10.08,11.92-17c0,0,6.12,4.27,7.14,10.52C167.65,47.43,157.06,56.07,148.59,53.94Z" class="be26e747-a48e-4296-ad71-65062b6aef9d"></path><path d="M148.59,53.94s7.54,12.62,15,11.09c0,0,4.43-3,4.06-11.09,0,0-11.69,3.47-19.06,0" class="a97a750f-c54f-498c-92fb-c2ec8e0269a9"></path><path d="M148.59,53.94s7.54,12.62,15,11.09c0,0,4.43-3,4.06-11.09C167.65,53.94,156,57.41,148.59,53.94Z" class="b9207086-708e-4707-869a-d5921b4f54bf"></path><path d="M167.65,53.94s1.44-5.85-19.06,0c0,0,11.61,7.54,19.06,0" class="a97a750f-c54f-498c-92fb-c2ec8e0269a9"></path><path d="M167.65,53.94s1.44-5.85-19.06,0C148.59,53.94,160.2,61.48,167.65,53.94Z" class="b9207086-708e-4707-869a-d5921b4f54bf"></path><path d="M92.92,198.55H90.31a39.58,39.58,0,0,1-39.46-39.47V133.91h81.54v25.17a39.58,39.58,0,0,1-39.47,39.47" class="a97a750f-c54f-498c-92fb-c2ec8e0269a9"></path><path d="M92.92,198.55H90.31a39.58,39.58,0,0,1-39.46-39.47V133.91h81.54v25.17A39.58,39.58,0,0,1,92.92,198.55Z" class="b8d7d3de-31ac-4b40-998b-da69ba9b1239"></path><polygon points="99.19 143.2 84.05 143.2 80.3 169.58 91.62 180.78 102.93 169.58 99.19 143.2" class="a97a750f-c54f-498c-92fb-c2ec8e0269a9"></polygon><polygon points="99.19 143.2 84.05 143.2 80.3 169.58 91.62 180.78 102.93 169.58 99.19 143.2" class="b8d7d3de-31ac-4b40-998b-da69ba9b1239"></polygon><polygon points="99.19 143.2 84.05 143.2 82.67 133.91 100.57 133.91 99.19 143.2" class="a97a750f-c54f-498c-92fb-c2ec8e0269a9"></polygon><polygon points="99.19 143.2 84.05 143.2 82.67 133.91 100.57 133.91 99.19 143.2" class="e6b1aaa9-5357-4c7d-9788-352cb73084bf"></polygon><polygon points="75.47 144.48 50.85 133.91 82.67 133.91 75.47 144.48" class="a97a750f-c54f-498c-92fb-c2ec8e0269a9"></polygon><polygon points="75.47 144.48 50.85 133.91 82.67 133.91 75.47 144.48" class="e6b1aaa9-5357-4c7d-9788-352cb73084bf"></polygon><polygon points="107.77 144.48 132.39 133.91 100.57 133.91 107.77 144.48" class="a97a750f-c54f-498c-92fb-c2ec8e0269a9"></polygon><polygon points="107.77 144.48 132.39 133.91 100.57 133.91 107.77 144.48" class="e6b1aaa9-5357-4c7d-9788-352cb73084bf"></polygon><rect height="71.88" width="239.84" y="162.21" x="0.11" class="a97a750f-c54f-498c-92fb-c2ec8e0269a9"></rect><line y2="162.35" x2="239.22" y1="162.06" x1="0.05" class="f787cfd8-d574-4087-a68d-2dec8fe03540"></line><polygon points="72.48 215.31 144.24 215.31 129.05 166.18 83.25 166.18 72.48 215.31" class="a97a750f-c54f-498c-92fb-c2ec8e0269a9"></polygon><polygon points="72.48 215.31 144.24 215.31 129.05 166.18 83.25 166.18 72.48 215.31" class="a58d5af6-c7fd-4e87-b254-eced9ebc0d86"></polygon><polygon points="51 221.19 122.76 221.19 107.57 172.06 61.77 172.06 51 221.19" class="a97a750f-c54f-498c-92fb-c2ec8e0269a9"></polygon><polygon points="51 221.19 122.76 221.19 107.57 172.06 61.77 172.06 51 221.19" class="a58d5af6-c7fd-4e87-b254-eced9ebc0d86"></polygon><path d="M129.21,149.18s9.57,12.45-1.41,17.58c-24.29,11.35-8.14,40.79,15.63,22.92,28.95-21.78,10.07-48.31,2.56-54.43a10.85,10.85,0,0,0-7.62-2.49c-1.9.15-6-1.53-8.58,2.27" class="a97a750f-c54f-498c-92fb-c2ec8e0269a9"></path><path d="M129.21,149.18s9.57,12.45-1.41,17.58c-24.29,11.35-8.14,40.79,15.63,22.92,28.95-21.78,10.07-48.31,2.56-54.43a10.85,10.85,0,0,0-7.62-2.49c-1.9.15-6-1.53-8.58,2.27" class="e6b1aaa9-5357-4c7d-9788-352cb73084bf"></path><path d="M153.76,104H155a3.79,3.79,0,0,0,3.77-3.77V80.06A3.79,3.79,0,0,0,155,76.29h-1.23A3.79,3.79,0,0,0,150,80.06v20.18a3.79,3.79,0,0,0,3.77,3.77" class="a97a750f-c54f-498c-92fb-c2ec8e0269a9"></path><rect rx="3.77" height="27.72" width="8.77" y="76.29" x="149.99" class="e6b1aaa9-5357-4c7d-9788-352cb73084bf"></rect><path d="M160.51,95.65h0a1.75,1.75,0,0,0,1.75-1.75V86.4a1.75,1.75,0,0,0-3.5,0v7.5a1.76,1.76,0,0,0,1.75,1.75" class="a97a750f-c54f-498c-92fb-c2ec8e0269a9"></path><path d="M160.51,95.65h0a1.75,1.75,0,0,0,1.75-1.75V86.4a1.75,1.75,0,0,0-3.5,0v7.5A1.76,1.76,0,0,0,160.51,95.65Z" class="e6b1aaa9-5357-4c7d-9788-352cb73084bf"></path><path d="M103.86,16.05a12.2,12.2,0,0,0-12.2,12.2,12.2,12.2,0,1,0-3.41,8.46V46.82h6.82V36.71a12.2,12.2,0,1,0,8.79-20.66ZM79.46,35.73a7.48,7.48,0,1,1,7.48-7.48A7.48,7.48,0,0,1,79.46,35.73Zm24.4,0a7.48,7.48,0,1,1,7.48-7.48A7.48,7.48,0,0,1,103.86,35.73Z" class="e6b1aaa9-5357-4c7d-9788-352cb73084bf"></path><path d="M115.09,90.15a1,1,0,1,1-1-1,1,1,0,0,1,1,1" class="a97a750f-c54f-498c-92fb-c2ec8e0269a9"></path><path d="M145.69,133.75H37.63a4.31,4.31,0,0,1-4.3-4.3V50.85a4.31,4.31,0,0,1,4.3-4.3H145.69a4.32,4.32,0,0,1,4.3,4.3v78.6a4.32,4.32,0,0,1-4.3,4.3" class="a97a750f-c54f-498c-92fb-c2ec8e0269a9"></path><rect rx="4.3" height="87.19" width="116.66" y="46.55" x="33.33" class="b8d7d3de-31ac-4b40-998b-da69ba9b1239"></rect><path d="M22.45,95.65h0a1.76,1.76,0,0,1-1.76-1.75V86.4a1.76,1.76,0,0,1,3.51,0v7.5a1.76,1.76,0,0,1-1.75,1.75" class="a97a750f-c54f-498c-92fb-c2ec8e0269a9"></path><path d="M22.45,95.65h0a1.76,1.76,0,0,1-1.76-1.75V86.4a1.76,1.76,0,0,1,3.51,0v7.5A1.76,1.76,0,0,1,22.45,95.65Z" class="e6b1aaa9-5357-4c7d-9788-352cb73084bf"></path><rect rx="3.77" height="27.72" width="8.77" y="76.29" x="24.2" class="e6b1aaa9-5357-4c7d-9788-352cb73084bf"></rect><path d="M133.92,60.3,94.6,67.92a2.69,2.69,0,0,1-1,0L54.3,60.3c-1.81-.35-3.45,1.28-3.45,3.41v62.05c0,2.13,1.64,3.75,3.45,3.4l39.33-7.58a2.64,2.64,0,0,1,1,0l39.32,7.58c1.81.35,3.46-1.27,3.46-3.4v-62c0-2.13-1.65-3.76-3.46-3.41" class="a97a750f-c54f-498c-92fb-c2ec8e0269a9"></path><path d="M133.92,60.3,94.6,67.92a2.69,2.69,0,0,1-1,0L54.3,60.3c-1.81-.35-3.45,1.28-3.45,3.41v62.05c0,2.13,1.64,3.75,3.45,3.4l39.33-7.58a2.64,2.64,0,0,1,1,0l39.32,7.58c1.81.35,3.46-1.27,3.46-3.4v-62C137.38,61.58,135.73,60,133.92,60.3Z" class="a80efc02-7c74-4a7f-b14b-54cd8944fb8f"></path><path d="M122.42,90.45c0,4.59-2.24,8.32-5,8.32s-5-3.73-5-8.32,2.23-8.33,5-8.33,5,3.73,5,8.33" class="b5ac8d47-6682-47ad-bc8a-25431bd1b198"></path><path d="M120.35,93.09c0,2.69-1.31,4.87-2.93,4.87s-2.92-2.18-2.92-4.87,1.31-4.88,2.92-4.88,2.93,2.18,2.93,4.88" class="bd6f3825-83a6-400e-91b3-aab48b603edb"></path><path d="M80.69,90.45c0,4.59-2.24,8.32-5,8.32s-5-3.73-5-8.32,2.23-8.33,5-8.33,5,3.73,5,8.33" class="b5ac8d47-6682-47ad-bc8a-25431bd1b198"></path><path d="M78.62,93.09c0,2.69-1.31,4.87-2.93,4.87s-2.92-2.18-2.92-4.87,1.31-4.88,2.92-4.88,2.93,2.18,2.93,4.88" class="bd6f3825-83a6-400e-91b3-aab48b603edb"></path><path d="M75.14,102.11c0,1.33-3.53,2.41-7.88,2.41s-7.88-1.08-7.88-2.41,3.53-2.42,7.88-2.42,7.88,1.08,7.88,2.42" class="ea2cd2a3-72f8-418d-87ed-f79e4df3050f"></path><path d="M133.39,102.11c0,1.33-3.53,2.41-7.88,2.41s-7.87-1.08-7.87-2.41,3.52-2.42,7.87-2.42,7.88,1.08,7.88,2.42" class="ea2cd2a3-72f8-418d-87ed-f79e4df3050f"></path><path d="M66.38,75l9.17,5.49a10.33,10.33,0,0,0,9.26-.75" class="bc30e085-6d78-4ce8-b8ea-89f120e76302"></path><path d="M129.79,74.28l-11.2,6.25a10.33,10.33,0,0,1-9.26-.75" class="bc30e085-6d78-4ce8-b8ea-89f120e76302"></path><polyline points="86.94 108.59 95.92 103.25 103.86 108.59" class="bc30e085-6d78-4ce8-b8ea-89f120e76302"></polyline><path d="M58,163a2.47,2.47,0,0,1,1.13-3.3,2.55,2.55,0,0,1,1.08-.25,2.45,2.45,0,0,1,2.22,1.39l14.12,28.94-4.43,2.17Z" class="a97a750f-c54f-498c-92fb-c2ec8e0269a9"></path><path d="M60.24,159.89A2,2,0,0,1,62,161l13.91,28.51-3.56,1.73-13.9-28.5a1.94,1.94,0,0,1-.1-1.51,2,2,0,0,1,1-1.14,2,2,0,0,1,.86-.2m0-1a3,3,0,0,0-2.65,4.26l14.33,29.38L77.23,190,62.9,160.58a2.94,2.94,0,0,0-2.66-1.67" class="b5ac8d47-6682-47ad-bc8a-25431bd1b198"></path><polygon points="72.97 192.59 76.62 190.81 76.15 194.48 72.97 192.59" class="a97a750f-c54f-498c-92fb-c2ec8e0269a9"></polygon><path d="M76,191.67l-.26,2-1.72-1ZM77.23,190h0Zm0,0-5.31,2.59,4.63,2.75Z" class="b5ac8d47-6682-47ad-bc8a-25431bd1b198"></path><path d="M57.21,149.18s-9.58,12.45,1.4,17.58C82.9,178.11,66.75,207.55,43,189.68,14,167.9,32.91,141.37,40.42,135.25A10.87,10.87,0,0,1,48,132.76c1.91.15,6.91,1.45,9.52,5.25" class="a97a750f-c54f-498c-92fb-c2ec8e0269a9"></path><path d="M57.21,149.18s-9.58,12.45,1.4,17.58C82.9,178.11,66.75,207.55,43,189.68,14,167.9,32.91,141.37,40.42,135.25A10.87,10.87,0,0,1,48,132.76c1.91.15,6.91,1.45,9.52,5.25" class="e6b1aaa9-5357-4c7d-9788-352cb73084bf"></path><path d="M15,154.76s-14.64,12.64-2.32,32" class="a97a750f-c54f-498c-92fb-c2ec8e0269a9"></path><path d="M15,154.76a24.32,24.32,0,0,0-2.66,3.44c-.4.61-.76,1.23-1.12,1.86s-.67,1.27-.94,1.94a23.14,23.14,0,0,0-2,8.29,16.81,16.81,0,0,0,0,2.13l0,1.07c0,.36.11.71.15,1.06.11.71.18,1.43.32,2.13s.37,1.38.54,2.08c.1.35.17.7.28,1l.39,1,.78,2c.58,1.32,1.3,2.59,1.9,3.92-.79-1.21-1.6-2.44-2.33-3.71l-.93-2L9,180c-.14-.34-.23-.7-.35-1-.23-.7-.45-1.41-.67-2.12s-.26-1.46-.4-2.19c-.06-.37-.12-.73-.17-1.1l0-1.12,0-1.11a6,6,0,0,1,0-1.12,21,21,0,0,1,2.29-8.55,21.26,21.26,0,0,1,5.4-6.92" class="b5ac8d47-6682-47ad-bc8a-25431bd1b198"></path><path d="M56.64,215.53a6.94,6.94,0,0,1,2.9-2.43,6.15,6.15,0,0,1,3.84-.25,26.39,26.39,0,0,1,3.47,1.58,10.44,10.44,0,0,0,3.57.74,14.42,14.42,0,0,0,3.65-.38c.6-.14,1.18-.34,1.82-.5a17.82,17.82,0,0,1,1.9-.4,25.05,25.05,0,0,1,3.85-.18l3.79,0c5.06,0,10.11,0,15.17.12l7.58.14c2.53.08,5.06.13,7.59.24-2.53.12-5.06.16-7.59.25l-7.58.14c-5.06.08-10.11.07-15.17.11l-3.79,0a24.09,24.09,0,0,0-3.72.13c-.61.09-1.21.2-1.81.35s-1.21.35-1.85.49a13.26,13.26,0,0,1-3.88.3A11.21,11.21,0,0,1,66.6,215a27,27,0,0,0-3.35-1.69,5.65,5.65,0,0,0-3.61,0,7.1,7.1,0,0,0-3,2.18" class="b5ac8d47-6682-47ad-bc8a-25431bd1b198"></path><path d="M68.87,204.64c3.48-.2,7-.3,10.44-.38s7-.1,10.43-.12,7,0,10.43.12l5.22.14c1.73.08,3.47.13,5.21.24-1.74.12-3.48.16-5.21.25l-5.22.14c-3.48.09-7,.1-10.43.11s-7,0-10.43-.11-7-.18-10.44-.39" class="b5ac8d47-6682-47ad-bc8a-25431bd1b198"></path><path d="M63,195.82a11.81,11.81,0,0,1,5.36-2.7,6.37,6.37,0,0,1,3.09.2l.74.31c.23.12.45.28.67.42s.42.26.6.37a6.11,6.11,0,0,0,.64.26,26.41,26.41,0,0,0,5.81.77c2,.09,4,.09,6,.06,4,0,8-.2,12-.38l12-.58c-4,.6-7.93,1-11.92,1.35s-8,.52-12,.61c-2,0-4,0-6-.15a23.19,23.19,0,0,1-6-1,6,6,0,0,1-.73-.34l-.66-.44a6,6,0,0,0-.58-.4l-.63-.31a5.93,5.93,0,0,0-2.81-.31A12.23,12.23,0,0,0,63,195.82" class="b5ac8d47-6682-47ad-bc8a-25431bd1b198"></path><path d="M15,165.44s-4.05,12.92,9.7,20.16" class="a97a750f-c54f-498c-92fb-c2ec8e0269a9"></path><path d="M15,165.44a22.58,22.58,0,0,0,0,6A17.34,17.34,0,0,0,16.69,177a8.82,8.82,0,0,0,.7,1.28,9.16,9.16,0,0,0,.8,1.22l.88,1.18,1,1.07.5.55.56.49,1.12,1c.77.63,1.61,1.18,2.41,1.83a30.44,30.44,0,0,1-2.77-1.32l-1.28-.86c-.22-.14-.43-.29-.64-.44l-.58-.52a15.11,15.11,0,0,1-3.84-4.91,14.86,14.86,0,0,1-1.56-6,14.36,14.36,0,0,1,1-6.07" class="b5ac8d47-6682-47ad-bc8a-25431bd1b198"></path><polygon points="163.21 105.37 197.32 129.6 237.44 121.64 200.32 99.69 163.21 105.37" class="a97a750f-c54f-498c-92fb-c2ec8e0269a9"></polygon><polygon points="163.21 105.37 197.32 129.6 237.44 121.64 200.32 99.69 163.21 105.37" class="a276940e-96f9-47c8-9ffa-0d96827a9bbf"></polygon><polygon points="163.21 105.54 163.54 164.64 196.99 190.75 197.32 129.6 163.21 105.54" class="b74f061a-2ded-48c2-b12f-32913c4ac385"></polygon><polygon points="163.21 105.54 163.54 164.64 196.99 190.75 197.32 129.6 163.21 105.54" class="a276940e-96f9-47c8-9ffa-0d96827a9bbf"></polygon><polygon points="196.65 190.73 237.44 181.29 237.44 121.64 197.32 129.59 196.65 190.73" class="ee16d0fe-dcce-4bcc-b897-e600269ec589"></polygon><polygon points="196.65 190.73 237.44 181.29 237.44 121.64 197.32 129.59 196.65 190.73" class="a276940e-96f9-47c8-9ffa-0d96827a9bbf"></polygon><line y2="136.69" x2="190.34" y1="117.9" x1="163.28" class="a97a750f-c54f-498c-92fb-c2ec8e0269a9"></line><path d="M163.28,117.9c2.36,1.41,4.67,2.9,7,4.4s4.57,3,6.83,4.61,4.5,3.15,6.7,4.78,4.42,3.27,6.56,5c-2.37-1.4-4.68-2.89-7-4.4s-4.57-3-6.83-4.6-4.5-3.15-6.7-4.79-4.42-3.27-6.56-5" class="b5ac8d47-6682-47ad-bc8a-25431bd1b198"></path><line y2="152.08" x2="196.65" y1="132.39" x1="170.48" class="a97a750f-c54f-498c-92fb-c2ec8e0269a9"></line><path d="M170.48,132.39c2.3,1.48,4.54,3.05,6.76,4.63s4.42,3.21,6.61,4.84,4.35,3.3,6.48,5,4.26,3.41,6.32,5.21c-2.3-1.48-4.53-3.05-6.76-4.63s-4.42-3.2-6.61-4.83-4.34-3.31-6.47-5-4.26-3.41-6.33-5.21" class="b5ac8d47-6682-47ad-bc8a-25431bd1b198"></path><line y2="136.85" x2="225.62" y1="142.24" x1="197.32" class="a97a750f-c54f-498c-92fb-c2ec8e0269a9"></line><path d="M197.32,142.24c2.32-.64,4.66-1.18,7-1.71s4.7-1,7-1.45,4.72-.88,7.1-1.24,4.75-.73,7.14-1c-2.32.64-4.66,1.18-7,1.7s-4.7,1-7.06,1.46-4.72.87-7.1,1.24-4.75.73-7.14,1" class="b5ac8d47-6682-47ad-bc8a-25431bd1b198"></path><line y2="150.75" x2="213.03" y1="154.49" x1="197.32" class="a97a750f-c54f-498c-92fb-c2ec8e0269a9"></line><path d="M197.32,154.49a59.29,59.29,0,0,1,7.74-2.33,61,61,0,0,1,8-1.41,60.52,60.52,0,0,1-7.75,2.33,62.53,62.53,0,0,1-8,1.41" class="b5ac8d47-6682-47ad-bc8a-25431bd1b198"></path><line y2="156.19" x2="235.28" y1="165.29" x1="196.93" class="a97a750f-c54f-498c-92fb-c2ec8e0269a9"></line><path d="M196.93,165.29c3.15-.94,6.32-1.79,9.5-2.63s6.38-1.58,9.57-2.38,6.4-1.49,9.61-2.17,6.43-1.36,9.67-1.92c-3.15.95-6.33,1.79-9.5,2.63s-6.38,1.59-9.57,2.38-6.39,1.49-9.61,2.17-6.43,1.36-9.67,1.92" class="b5ac8d47-6682-47ad-bc8a-25431bd1b198"></path><line y2="168.73" x2="196.89" y1="154.49" x1="178.49" class="a97a750f-c54f-498c-92fb-c2ec8e0269a9"></line><path d="M178.49,154.49c3.3,2.07,6.42,4.38,9.49,6.74s6.08,4.83,8.91,7.5c-3.29-2.08-6.41-4.39-9.49-6.75s-6.07-4.83-8.91-7.49" class="b5ac8d47-6682-47ad-bc8a-25431bd1b198"></path><line y2="173.71" x2="189" y1="156.98" x1="167.99" class="a97a750f-c54f-498c-92fb-c2ec8e0269a9"></line><path d="M168,157c1.87,1.24,3.68,2.56,5.48,3.9s3.56,2.71,5.32,4.09,3.49,2.81,5.18,4.27,3.4,2.92,5,4.47c-1.88-1.24-3.68-2.56-5.48-3.9s-3.56-2.71-5.32-4.1-3.49-2.8-5.18-4.27-3.4-2.92-5-4.46" class="b5ac8d47-6682-47ad-bc8a-25431bd1b198"></path><line y2="173.71" x2="229.94" y1="181.29" x1="197.32" class="a97a750f-c54f-498c-92fb-c2ec8e0269a9"></line><path d="M197.32,181.29c2.67-.82,5.37-1.54,8.07-2.25s5.42-1.36,8.13-2,5.44-1.24,8.18-1.79,5.48-1.1,8.24-1.54c-2.67.82-5.37,1.55-8.07,2.25s-5.42,1.36-8.13,2-5.45,1.24-8.18,1.79-5.48,1.1-8.24,1.54" class="b5ac8d47-6682-47ad-bc8a-25431bd1b198"></path><path d="M187.58,119s5.34,4,10.95,1.87c0,0,0,4.81,8.52,2.94" class="a97a750f-c54f-498c-92fb-c2ec8e0269a9"></path><path d="M187.58,119a17,17,0,0,0,5.35,1.89,11.13,11.13,0,0,0,2.76.12,9.81,9.81,0,0,0,2.67-.58.49.49,0,0,1,.62.32.59.59,0,0,1,0,.13,2.86,2.86,0,0,0,.94,1.89,4.67,4.67,0,0,0,2.09,1,11.28,11.28,0,0,0,2.48.21c.84,0,1.68-.1,2.54-.16a12.18,12.18,0,0,1-5.14.65,5,5,0,0,1-2.54-1,3.57,3.57,0,0,1-1.31-2.56l.64.44a9.94,9.94,0,0,1-2.95.61,10.2,10.2,0,0,1-3-.28,12.58,12.58,0,0,1-2.77-1,12.39,12.39,0,0,1-2.43-1.62" class="b5ac8d47-6682-47ad-bc8a-25431bd1b198"></path><path d="M163.47,176.59s9.43,17.33-6.59,27.36" class="a97a750f-c54f-498c-92fb-c2ec8e0269a9"></path><path d="M163.47,176.59a23.09,23.09,0,0,1,2.79,7.33,20.1,20.1,0,0,1,.08,7.92,19,19,0,0,1-1.24,3.8A18.13,18.13,0,0,1,163,199a19.57,19.57,0,0,1-2.82,2.79,21.22,21.22,0,0,1-3.28,2.14c.5-.41,1-.79,1.53-1.21s1-.83,1.43-1.3a18.68,18.68,0,0,0,4.39-6.19,18.22,18.22,0,0,0,1.13-3.61,22.74,22.74,0,0,0,.14-7.59,27.61,27.61,0,0,0-.79-3.78,28.94,28.94,0,0,0-1.24-3.68" class="b5ac8d47-6682-47ad-bc8a-25431bd1b198"></path><path d="M159.73,181.21s1.13,10.68-6.38,12.65" class="a97a750f-c54f-498c-92fb-c2ec8e0269a9"></path><path d="M159.73,181.21a13,13,0,0,1,.3,3.89,12.34,12.34,0,0,1-.82,3.87,9,9,0,0,1-2.26,3.31,6.89,6.89,0,0,1-3.6,1.58,10.07,10.07,0,0,0,3.06-2.14,10.75,10.75,0,0,0,1.87-3.12,17.31,17.31,0,0,0,1-3.59,36.18,36.18,0,0,0,.47-3.8" class="b5ac8d47-6682-47ad-bc8a-25431bd1b198"></path><path d="M32.07,35.36S14.34,28.24,7.53,36.71a4,4,0,0,0,3.4,6.45c1.8-.17,4.08-1.22,7.32-3.29,10.16-6.52,13.82-4.51,13.82-4.51" class="ea2cd2a3-72f8-418d-87ed-f79e4df3050f"></path><rect height="10.61" width="25.43" y="32.56" x="6.64" class="be91fb3a-0230-4960-8be2-04f616c8b40f"></rect><path d="M30.46,42.22s-3.95-.64-8.33,4.39a3.09,3.09,0,0,0-.06,4.06c.63.72,2,1.72,3,.35,2-2.91,1.51-6,5.42-8.8" class="ea2cd2a3-72f8-418d-87ed-f79e4df3050f"></path><rect height="9.5" width="9.13" y="42.2" x="21.34" class="be91fb3a-0230-4960-8be2-04f616c8b40f"></rect><path d="M41.76,34.18s-5.8-9.27-9.54-4.84c-.64.75-.95,3.43,2.69,2.86s5.47,0,6.85,2" class="ea2cd2a3-72f8-418d-87ed-f79e4df3050f"></path><rect height="6.04" width="9.94" y="28.14" x="31.82" class="be91fb3a-0230-4960-8be2-04f616c8b40f"></rect><path d="M132.39,33S143.76,17.63,154,21.27a4,4,0,0,1,.49,7.27c-1.62.8-4.11,1.1-7.95,1C134.46,29.35,132.39,33,132.39,33" class="ea2cd2a3-72f8-418d-87ed-f79e4df3050f"></path><rect height="12.27" width="24.26" y="20.71" x="132.39" class="be91fb3a-0230-4960-8be2-04f616c8b40f"></rect><path d="M137.36,38s3-2.61,9.4-.63a3.1,3.1,0,0,1,2.18,3.43c-.17.94-.84,2.53-2.35,1.86-3.23-1.44-4.42-4.31-9.23-4.66" class="ea2cd2a3-72f8-418d-87ed-f79e4df3050f"></path><rect height="6.19" width="11.62" y="36.6" x="137.36" class="be91fb3a-0230-4960-8be2-04f616c8b40f"></rect><path d="M61.55,168.34c-8.67.67-15.47,7.2-15.47,15.16a14.41,14.41,0,0,0,4.76,10.56c18.16,6.6,28.24-15,10.71-25.72" class="a97a750f-c54f-498c-92fb-c2ec8e0269a9"></path><path d="M61.55,168.34c-8.67.67-15.47,7.2-15.47,15.16a14.41,14.41,0,0,0,4.76,10.56C69,200.66,79.08,179.1,61.55,168.34Z" class="e6b1aaa9-5357-4c7d-9788-352cb73084bf"></path><path d="M122.76,169.85h-.09c-14.76,11.4-4,31.44,14.15,23.72a14.07,14.07,0,0,0,2.88-8.49c0-8.41-7.59-15.23-16.94-15.23" class="a97a750f-c54f-498c-92fb-c2ec8e0269a9"></path><path d="M122.76,169.85h-.09c-14.76,11.4-4,31.44,14.15,23.72a14.07,14.07,0,0,0,2.88-8.49C139.7,176.67,132.11,169.85,122.76,169.85Z" class="e6b1aaa9-5357-4c7d-9788-352cb73084bf"></path><path d="M187.59,81.65s5.8,13.9,17.11,4.33c0,0-1.6,18.63,12.74,9,0,0,.44,10.58,9.07,2.74" class="a97a750f-c54f-498c-92fb-c2ec8e0269a9"></path><path d="M187.59,81.65a17.9,17.9,0,0,0,3,4.33A10.12,10.12,0,0,0,195,88.74a7.86,7.86,0,0,0,5-.35,15.44,15.44,0,0,0,4.4-2.74.43.43,0,0,1,.6,0,.39.39,0,0,1,.1.3v0a23.41,23.41,0,0,0,.31,5.42,9,9,0,0,0,2.13,4.74,4.78,4.78,0,0,0,4.79.88,18.32,18.32,0,0,0,4.89-2.34h0a.35.35,0,0,1,.54.28,9.83,9.83,0,0,0,.66,3.21,3.31,3.31,0,0,0,2.15,2.16,4.6,4.6,0,0,0,3.13-.67,17.75,17.75,0,0,0,2.78-1.94,14.91,14.91,0,0,1-2.66,2.15,4.94,4.94,0,0,1-3.34.9,3.76,3.76,0,0,1-2.59-2.37,10.8,10.8,0,0,1-.84-3.41l.55.28a16.73,16.73,0,0,1-5.06,2.55,6.81,6.81,0,0,1-2.92.27,4.92,4.92,0,0,1-2.71-1.3,9.31,9.31,0,0,1-2.42-5.22,23.84,23.84,0,0,1-.25-5.66l.7.36a15.8,15.8,0,0,1-4.68,2.82,8.51,8.51,0,0,1-5.46.18,10,10,0,0,1-4.45-3.09,16.5,16.5,0,0,1-2.79-4.57" class="b5ac8d47-6682-47ad-bc8a-25431bd1b198"></path></g></svg>