<svg viewBox="0 0 240 240" xmlns="http://www.w3.org/2000/svg"><defs><style>.f10a5bd2-c8ea-4ae1-9207-1817f4ac11f7{fill:#ececec;}.a915fa82-6a0c-466d-9757-3ad8cf95800d,.b89e060f-d3ce-4f46-a491-170a72946049,.ebf6da8d-dd3d-466b-b8f9-cda851a325ee,.f407f5d5-c059-4117-b548-a9d37774c38a,.fb634262-a092-4793-b090-39cef6cbba75{fill:none;}.a915fa82-6a0c-466d-9757-3ad8cf95800d,.ebf6da8d-dd3d-466b-b8f9-cda851a325ee,.f407f5d5-c059-4117-b548-a9d37774c38a,.fb634262-a092-4793-b090-39cef6cbba75{stroke:#17326f;}.a915fa82-6a0c-466d-9757-3ad8cf95800d,.b89e060f-d3ce-4f46-a491-170a72946049,.f407f5d5-c059-4117-b548-a9d37774c38a,.fb634262-a092-4793-b090-39cef6cbba75{stroke-linecap:round;stroke-linejoin:round;}.fb634262-a092-4793-b090-39cef6cbba75{stroke-width:0.42px;}.e401b7ed-d44c-4cf0-b496-8adf6a74c842{fill:#fff;}.ebf6da8d-dd3d-466b-b8f9-cda851a325ee{stroke-miterlimit:10;}.a915fa82-6a0c-466d-9757-3ad8cf95800d,.ebf6da8d-dd3d-466b-b8f9-cda851a325ee{stroke-width:1.59px;}.f407f5d5-c059-4117-b548-a9d37774c38a{stroke-width:1.62px;}.a12f6773-4025-4863-b45e-3f543509f114{fill:#dedede;}.b89e060f-d3ce-4f46-a491-170a72946049{stroke:#16326f;stroke-width:2.19px;}</style></defs><title>缺省页小爱</title><g id="a08c58e0-026f-4f7f-833b-5c952a4da394"><path d="M161.87,225c0,3.75-15.4,6.8-34.39,6.8s-34.39-3-34.39-6.8,15.4-6.81,34.39-6.81,34.39,3,34.39,6.81" class="f10a5bd2-c8ea-4ae1-9207-1817f4ac11f7"></path><path d="M102.15,34.79c-7-.39-13.27-.93-18.41-1.58-2.74-.35-5.16-.74-7.22-1.15" class="fb634262-a092-4793-b090-39cef6cbba75"></path><path d="M180,25.79c3.57.88,5.57,1.85,5.57,2.88,0,.81-1.21,1.58-3.42,2.29a62.22,62.22,0,0,1-9.47,1.95" class="fb634262-a092-4793-b090-39cef6cbba75"></path><path d="M94.61,23.06c2.9-.23,6-.43,9.23-.59,7.13-.36,15-.56,23.28-.56,7.71,0,15.06.18,21.8.49" class="fb634262-a092-4793-b090-39cef6cbba75"></path><path d="M68.66,28.67c0-.74,1-1.45,2.93-2.11a67.09,67.09,0,0,1,12.83-2.5" class="fb634262-a092-4793-b090-39cef6cbba75"></path><path d="M58.42,28.67c0-2.32,7-4.43,18.39-6" class="fb634262-a092-4793-b090-39cef6cbba75"></path><path d="M101.64,36.87c-5.94-.31-11.47-.72-16.46-1.21C79.74,35.12,75,34.48,71,33.76" class="fb634262-a092-4793-b090-39cef6cbba75"></path><path d="M178.45,22.81c10.8,1.56,17.36,3.61,17.36,5.86,0,1-1.28,1.95-3.64,2.85-3.94,1.48-10.88,2.79-19.9,3.8" class="fb634262-a092-4793-b090-39cef6cbba75"></path><path d="M96.15,20.8c9.3-.6,19.83-.94,31-.94s21.54.33,30.81.93" class="fb634262-a092-4793-b090-39cef6cbba75"></path><path d="M65.4,27.18l1,3.2a.17.17,0,0,0,.17.13h3.26a.19.19,0,0,1,.1.34l-2.63,2a.21.21,0,0,0-.07.21l1,3.21a.19.19,0,0,1-.28.21l-2.63-2a.17.17,0,0,0-.21,0l-2.64,2a.19.19,0,0,1-.28-.21l1-3.21a.2.2,0,0,0-.07-.21l-2.63-2a.19.19,0,0,1,.11-.34h3.25a.17.17,0,0,0,.17-.13l1-3.2a.18.18,0,0,1,.34,0" class="f10a5bd2-c8ea-4ae1-9207-1817f4ac11f7"></path><path d="M88.38,18,89,20a.12.12,0,0,0,.1.08h2a.11.11,0,0,1,.06.2l-1.58,1.19a.12.12,0,0,0,0,.13l.61,1.92a.12.12,0,0,1-.17.13l-1.58-1.19a.11.11,0,0,0-.13,0l-1.58,1.19a.11.11,0,0,1-.17-.13l.6-1.92a.11.11,0,0,0,0-.13l-1.58-1.19a.11.11,0,0,1,.07-.2h1.95a.11.11,0,0,0,.1-.08L88.17,18a.11.11,0,0,1,.21,0" class="f10a5bd2-c8ea-4ae1-9207-1817f4ac11f7"></path><path d="M169,19.46l.71,2.28a.14.14,0,0,0,.12.09h2.31a.13.13,0,0,1,.08.24l-1.87,1.41a.14.14,0,0,0,0,.15L171,25.9a.13.13,0,0,1-.2.15L169,24.65a.11.11,0,0,0-.15,0l-1.87,1.4a.13.13,0,0,1-.2-.15l.71-2.27a.13.13,0,0,0,0-.15l-1.87-1.41a.13.13,0,0,1,.07-.24h2.31a.14.14,0,0,0,.13-.09l.71-2.28a.13.13,0,0,1,.25,0" class="f10a5bd2-c8ea-4ae1-9207-1817f4ac11f7"></path><path d="M159.55,29.78l1.1,3.5a.2.2,0,0,0,.19.14h3.55a.2.2,0,0,1,.11.37L161.63,36a.19.19,0,0,0-.07.22l1.1,3.5a.2.2,0,0,1-.31.23l-2.87-2.16a.17.17,0,0,0-.23,0l-2.87,2.16a.2.2,0,0,1-.3-.23l1.09-3.5a.19.19,0,0,0-.07-.22l-2.87-2.16a.21.21,0,0,1,.12-.37h3.55a.19.19,0,0,0,.18-.14l1.1-3.5a.19.19,0,0,1,.37,0" class="f10a5bd2-c8ea-4ae1-9207-1817f4ac11f7"></path><path d="M168.48,140.63s24.07-9.62,21.82-29.89c-2-17.68,20.21-20.49,22.45-3S202.29,157.67,168.48,162" class="e401b7ed-d44c-4cf0-b496-8adf6a74c842"></path><path d="M168.48,140.63s24.07-9.62,21.82-29.89c-2-17.68,20.21-20.49,22.45-3S202.29,157.67,168.48,162" class="ebf6da8d-dd3d-466b-b8f9-cda851a325ee"></path><path d="M86.48,140.63S62.41,131,64.66,110.74c2-17.68-20.2-20.49-22.44-3S52.67,157.67,86.48,162" class="e401b7ed-d44c-4cf0-b496-8adf6a74c842"></path><path d="M86.48,140.63S62.41,131,64.66,110.74c2-17.68-20.2-20.49-22.44-3S52.67,157.67,86.48,162" class="ebf6da8d-dd3d-466b-b8f9-cda851a325ee"></path><path d="M140.63,8.21a13.51,13.51,0,0,0-13.51,13.52,13.51,13.51,0,1,0-3.78,9.37V42.3h7.56V31.1a13.52,13.52,0,1,0,9.73-22.89M113.6,30a8.29,8.29,0,1,1,8.29-8.28A8.29,8.29,0,0,1,113.6,30m27,0a8.29,8.29,0,1,1,8.29-8.28A8.28,8.28,0,0,1,140.63,30" class="e401b7ed-d44c-4cf0-b496-8adf6a74c842"></path><path d="M140.63,8.21a13.51,13.51,0,0,0-13.51,13.52,13.51,13.51,0,1,0-3.78,9.37V42.3h7.56V31.1a13.52,13.52,0,1,0,9.73-22.89ZM113.6,30a8.29,8.29,0,1,1,8.29-8.28A8.29,8.29,0,0,1,113.6,30Zm27,0a8.29,8.29,0,1,1,8.29-8.28A8.28,8.28,0,0,1,140.63,30Z" class="a915fa82-6a0c-466d-9757-3ad8cf95800d"></path><path d="M153.07,90.52A1.11,1.11,0,1,1,152,89.41a1.11,1.11,0,0,1,1.11,1.11" class="e401b7ed-d44c-4cf0-b496-8adf6a74c842"></path><path d="M64.53,114a25.2,25.2,0,0,1,.13-3.22c2-17.68-20.21-20.49-22.44-3a34.67,34.67,0,0,0-.15,6.82,16,16,0,0,0,22.46-.6" class="e401b7ed-d44c-4cf0-b496-8adf6a74c842"></path><path d="M64.53,114a25.2,25.2,0,0,1,.13-3.22c2-17.68-20.21-20.49-22.44-3a34.67,34.67,0,0,0-.15,6.82,16,16,0,0,0,22.46-.6Z" class="ebf6da8d-dd3d-466b-b8f9-cda851a325ee"></path><path d="M212.75,107.74c-2.24-17.49-24.41-14.68-22.45,3a24.49,24.49,0,0,1,.13,3.7,16,16,0,0,0,22.49-.37,35.37,35.37,0,0,0-.17-6.33" class="e401b7ed-d44c-4cf0-b496-8adf6a74c842"></path><path d="M212.75,107.74c-2.24-17.49-24.41-14.68-22.45,3a24.49,24.49,0,0,1,.13,3.7,16,16,0,0,0,22.49-.37A35.37,35.37,0,0,0,212.75,107.74Z" class="ebf6da8d-dd3d-466b-b8f9-cda851a325ee"></path><path d="M195.92,105.88h1.37a4.19,4.19,0,0,0,4.17-4.18V79.34a4.19,4.19,0,0,0-4.17-4.18h-1.37a4.19,4.19,0,0,0-4.17,4.18V101.7a4.19,4.19,0,0,0,4.17,4.18" class="e401b7ed-d44c-4cf0-b496-8adf6a74c842"></path><path d="M195.92,75.16h1.37a4.17,4.17,0,0,1,4.17,4.17V101.7a4.17,4.17,0,0,1-4.17,4.17h-1.36a4.18,4.18,0,0,1-4.18-4.18V79.34A4.17,4.17,0,0,1,195.92,75.16Z" class="a915fa82-6a0c-466d-9757-3ad8cf95800d"></path><path d="M203.4,96.61h0a2,2,0,0,0,1.95-1.94v-8.3a1.95,1.95,0,0,0-3.89,0v8.3a2,2,0,0,0,1.94,1.94" class="e401b7ed-d44c-4cf0-b496-8adf6a74c842"></path><path d="M203.4,96.61h0a2,2,0,0,0,1.95-1.94v-8.3a1.95,1.95,0,0,0-3.89,0v8.3A2,2,0,0,0,203.4,96.61Z" class="a915fa82-6a0c-466d-9757-3ad8cf95800d"></path><path d="M187,138.82H67.25a4.77,4.77,0,0,1-4.76-4.76V47a4.78,4.78,0,0,1,4.76-4.77H187A4.79,4.79,0,0,1,191.75,47v87.08a4.78,4.78,0,0,1-4.77,4.76" class="e401b7ed-d44c-4cf0-b496-8adf6a74c842"></path><rect rx="4.77" height="96.61" width="129.26" y="42.21" x="62.49" class="ebf6da8d-dd3d-466b-b8f9-cda851a325ee"></rect><path d="M173.73,50.21l-46,8.91a2.74,2.74,0,0,1-1.14,0l-46-8.91c-2.12-.41-4.05,1.49-4.05,4v72.64c0,2.5,1.93,4.4,4.05,4l46-8.88a3.12,3.12,0,0,1,1.14,0l46,8.88c2.12.41,4-1.49,4-4V54.2c0-2.5-1.93-4.4-4-4" class="e401b7ed-d44c-4cf0-b496-8adf6a74c842"></path><path d="M173.73,50.21l-46,8.91a2.74,2.74,0,0,1-1.14,0l-46-8.91c-2.12-.41-4.05,1.49-4.05,4v72.64c0,2.5,1.93,4.4,4.05,4l46-8.88a3.12,3.12,0,0,1,1.14,0l46,8.88c2.12.41,4-1.49,4-4V54.2C177.77,51.7,175.84,49.8,173.73,50.21Z" class="ebf6da8d-dd3d-466b-b8f9-cda851a325ee"></path><path d="M50.43,96.61h0a2,2,0,0,1-1.94-1.94v-8.3a1.94,1.94,0,0,1,3.88,0v8.3a1.94,1.94,0,0,1-1.94,1.94" class="e401b7ed-d44c-4cf0-b496-8adf6a74c842"></path><path d="M50.43,96.61h0a2,2,0,0,1-1.94-1.94v-8.3a1.94,1.94,0,0,1,3.88,0v8.3A1.94,1.94,0,0,1,50.43,96.61Z" class="a915fa82-6a0c-466d-9757-3ad8cf95800d"></path><path d="M57.91,105.88H56.55a4.19,4.19,0,0,1-4.18-4.18V79.34a4.19,4.19,0,0,1,4.18-4.18h1.36a4.19,4.19,0,0,1,4.18,4.18V101.7a4.19,4.19,0,0,1-4.18,4.18" class="e401b7ed-d44c-4cf0-b496-8adf6a74c842"></path><rect rx="4.17" height="30.71" width="9.71" y="75.16" x="52.37" class="a915fa82-6a0c-466d-9757-3ad8cf95800d"></rect><path d="M128.51,210.63h-2.88A43.86,43.86,0,0,1,81.9,166.9V139h90.35v27.88a43.86,43.86,0,0,1-43.74,43.74" class="e401b7ed-d44c-4cf0-b496-8adf6a74c842"></path><path d="M128.51,210.63h-2.88A43.86,43.86,0,0,1,81.9,166.9V139h90.35v27.88A43.86,43.86,0,0,1,128.51,210.63Z" class="ebf6da8d-dd3d-466b-b8f9-cda851a325ee"></path><polygon points="135.46 149.3 118.69 149.3 114.53 178.53 127.07 190.94 139.61 178.53 135.46 149.3" class="e401b7ed-d44c-4cf0-b496-8adf6a74c842"></polygon><polygon points="135.46 149.3 118.69 149.3 114.53 178.53 127.07 190.94 139.61 178.53 135.46 149.3" class="ebf6da8d-dd3d-466b-b8f9-cda851a325ee"></polygon><polygon points="135.46 149.3 118.69 149.3 117.16 139.01 136.99 139.01 135.46 149.3" class="e401b7ed-d44c-4cf0-b496-8adf6a74c842"></polygon><polygon points="135.46 149.3 118.69 149.3 117.16 139.01 136.99 139.01 135.46 149.3" class="a915fa82-6a0c-466d-9757-3ad8cf95800d"></polygon><polygon points="109.18 150.72 81.9 139.01 117.16 139.01 109.18 150.72" class="e401b7ed-d44c-4cf0-b496-8adf6a74c842"></polygon><polygon points="109.18 150.72 81.9 139.01 117.16 139.01 109.18 150.72" class="a915fa82-6a0c-466d-9757-3ad8cf95800d"></polygon><polygon points="144.96 150.72 172.25 139.01 136.99 139.01 144.96 150.72" class="e401b7ed-d44c-4cf0-b496-8adf6a74c842"></polygon><polygon points="144.96 150.72 172.25 139.01 136.99 139.01 144.96 150.72" class="a915fa82-6a0c-466d-9757-3ad8cf95800d"></polygon><path d="M101.35,96.61c0,1.48-3.91,2.68-8.73,2.68s-8.72-1.2-8.72-2.68,3.9-2.67,8.72-2.67,8.73,1.2,8.73,2.67" class="f10a5bd2-c8ea-4ae1-9207-1817f4ac11f7"></path><path d="M170.34,96.61c0,1.48-3.91,2.68-8.73,2.68s-8.73-1.2-8.73-2.68,3.91-2.67,8.73-2.67,8.73,1.2,8.73,2.67" class="f10a5bd2-c8ea-4ae1-9207-1817f4ac11f7"></path><path d="M111.27,79.2c1.47,9.39-3.06,15.51-11.88,15.51-7,0-11.87-3.29-11.87-10.35A10.22,10.22,0,0,1,97.73,74.14a8.18,8.18,0,0,1,8.18,8.18,6.54,6.54,0,0,1-6.54,6.54,5.23,5.23,0,0,1-5.23-5.23,4.18,4.18,0,0,1,4.18-4.19,3.35,3.35,0,0,1,3.35,3.35A2.68,2.68,0,0,1,99,85.47a2.14,2.14,0,0,1-2.14-2.15" class="f407f5d5-c059-4117-b548-a9d37774c38a"></path><path d="M163.38,79.2c1.47,9.39-3,15.51-11.87,15.51-7.06,0-11.88-3.29-11.88-10.35a10.23,10.23,0,0,1,10.22-10.22A8.18,8.18,0,0,1,158,82.32a6.54,6.54,0,0,1-6.54,6.54,5.24,5.24,0,0,1-5.24-5.23,4.19,4.19,0,0,1,4.19-4.19,3.35,3.35,0,0,1,3.35,3.35,2.68,2.68,0,0,1-2.68,2.68A2.14,2.14,0,0,1,149,83.32" class="f407f5d5-c059-4117-b548-a9d37774c38a"></path><path d="M129.8,113.51a1.58,1.58,0,0,1,1.41,1.67c0,1.55,3.71.71,3.1-2.55a6.45,6.45,0,0,1,.19-4s-.76,2-4.7,4.86" class="a12f6773-4025-4863-b45e-3f543509f114"></path><path d="M119.78,98h14.57a2.17,2.17,0,0,1,2.16,2.35c-.39,4.46-2.08,13.73-9.39,13.62-8.29-.12-9.43-9.41-9.51-13.76A2.17,2.17,0,0,1,119.78,98" class="b89e060f-d3ce-4f46-a491-170a72946049"></path><path d="M27,165.56a1.5,1.5,0,0,0,0-3,1.5,1.5,0,0,0,0,3Z" class="f10a5bd2-c8ea-4ae1-9207-1817f4ac11f7"></path></g></svg>