<svg viewBox="0 0 240 240" xmlns:xlink="http://www.w3.org/1999/xlink" xmlns="http://www.w3.org/2000/svg"><defs><style>.a372108f-4054-4578-8e8f-3c15a069bc56,.ace15ec1-d7dd-44af-8797-5e2dbe9cde4c,.b7b3f082-5451-4772-a294-55381e83e62d,.bb405c81-7713-40dd-9c08-eaba128d87d6,.be7e8406-bfe1-444e-b340-c8ba9395019e,.e12868e2-7d02-4de7-87fc-d4fc7a5f1e94,.e6515640-1883-44f4-930b-eb7614b6a1df,.e984f25f-3dd4-4673-80de-73fcaa857f2e,.f040b65d-469e-438d-bd68-01da91674d88,.f25aa561-2ce5-42fa-814f-43ad13c21f15{fill:none;}.a9647ddc-6d2d-48c8-ad63-93ebe5b1a915,.f884df51-ef0f-4a09-a8ba-33079e04a15a{fill:#fff;}.a372108f-4054-4578-8e8f-3c15a069bc56,.a9647ddc-6d2d-48c8-ad63-93ebe5b1a915,.ace15ec1-d7dd-44af-8797-5e2dbe9cde4c,.b7b3f082-5451-4772-a294-55381e83e62d,.be7e8406-bfe1-444e-b340-c8ba9395019e,.e12868e2-7d02-4de7-87fc-d4fc7a5f1e94,.e6515640-1883-44f4-930b-eb7614b6a1df,.e984f25f-3dd4-4673-80de-73fcaa857f2e,.f040b65d-469e-438d-bd68-01da91674d88,.f25aa561-2ce5-42fa-814f-43ad13c21f15{stroke:#16326f;}.ace15ec1-d7dd-44af-8797-5e2dbe9cde4c,.b7b3f082-5451-4772-a294-55381e83e62d,.be7e8406-bfe1-444e-b340-c8ba9395019e,.e6515640-1883-44f4-930b-eb7614b6a1df,.e984f25f-3dd4-4673-80de-73fcaa857f2e,.f040b65d-469e-438d-bd68-01da91674d88,.f25aa561-2ce5-42fa-814f-43ad13c21f15{stroke-linecap:round;stroke-linejoin:round;}.f040b65d-469e-438d-bd68-01da91674d88{stroke-width:2.4px;}.a372108f-4054-4578-8e8f-3c15a069bc56,.a9647ddc-6d2d-48c8-ad63-93ebe5b1a915,.e12868e2-7d02-4de7-87fc-d4fc7a5f1e94{stroke-miterlimit:10;}.a372108f-4054-4578-8e8f-3c15a069bc56{stroke-width:2.15px;}.a93a5c2e-0aca-4675-b8bc-ca62673ce6f9{fill:#1c56a6;}.e984f25f-3dd4-4673-80de-73fcaa857f2e{stroke-width:2.06px;}.e6515640-1883-44f4-930b-eb7614b6a1df{stroke-width:2.28px;}.bdad8416-2c2f-420c-9199-9506feb49218{fill:#dedede;}.a9647ddc-6d2d-48c8-ad63-93ebe5b1a915,.e12868e2-7d02-4de7-87fc-d4fc7a5f1e94{stroke-width:1.63px;}.a90a765d-4aaa-4275-9057-9d3af682dc00{fill:#16326f;}.fa273c30-2613-4e30-9f6b-9ad660525c41{fill:#17326f;}.a10d7fb1-22ea-417d-a0a5-c58f9beb352c{fill:#eee;}.f25aa561-2ce5-42fa-814f-43ad13c21f15{stroke-width:2px;}.ace15ec1-d7dd-44af-8797-5e2dbe9cde4c{stroke-width:1.71px;}.b7b3f082-5451-4772-a294-55381e83e62d{stroke-width:1.49px;}.bf64c631-b28f-42b1-bcc0-c0a031225771{clip-path:url(#a327eb18-2a86-4d7c-889e-78e4d8b03c6d);}.a7ac5282-9f88-480d-a46e-27a8bdb3ecff{clip-path:url(#e0631c0d-7947-492c-8d28-bca16d515ecc);}.be7e8406-bfe1-444e-b340-c8ba9395019e{stroke-width:2.39px;}.abdbfbf4-a3db-47d1-9ae0-686b6df2a976{fill:#ececec;}.b0cf17bb-33a8-4346-9be6-0dcf4dac7c29{fill:#2a5eab;}</style><clipPath id="a327eb18-2a86-4d7c-889e-78e4d8b03c6d"><rect height="42.5" width="50.5" y="145.71" x="121" class="bb405c81-7713-40dd-9c08-eaba128d87d6"></rect></clipPath><clipPath id="e0631c0d-7947-492c-8d28-bca16d515ecc"><path d="M196.69,31.74l-87.88,8.14a7.54,7.54,0,0,0-2.08.51L72,56.71c-3.62,1.46-5.06,3-4.37,7.21l10,67.8c.76,4.59,4.66,7.71,8.87,7.1L187,129.46a7.82,7.82,0,0,0,5.24-3.31l18.11-23.48A9.37,9.37,0,0,0,212,96.73l-6.7-56.89c-.29-4.62-3.78-8.13-7.92-8.13-.22,0-.45,0-.67,0" class="bb405c81-7713-40dd-9c08-eaba128d87d6"></path></clipPath></defs><title>缺省页小爱</title><g id="aa0bb5e2-5edd-486d-bbbc-530ed7e8e2c1"><path d="M72.14,106.17h0a1.84,1.84,0,0,0,1.52-2.09l-2-12.75a1.83,1.83,0,0,0-3.61.56l2,12.76a1.84,1.84,0,0,0,2.09,1.52" class="f884df51-ef0f-4a09-a8ba-33079e04a15a"></path><path d="M72.14,106.17h0a1.84,1.84,0,0,0,1.52-2.09l-2-12.75a1.83,1.83,0,0,0-3.61.56l2,12.76A1.84,1.84,0,0,0,72.14,106.17Z" class="f040b65d-469e-438d-bd68-01da91674d88"></path><path d="M101,153.71s-20.15,10.84-13.74,21.95,30.37-1.78,30.37-1.78L122,142.71s-7,1-21,11" class="f884df51-ef0f-4a09-a8ba-33079e04a15a"></path><path d="M101,153.71s-20.15,10.84-13.74,21.95,30.37-1.78,30.37-1.78L122,142.71S115,143.71,101,153.71Z" class="a372108f-4054-4578-8e8f-3c15a069bc56"></path><polygon points="151.76 161.02 149.78 167.3 116.92 138.5 130.49 137.02 151.76 161.02" class="a93a5c2e-0aca-4675-b8bc-ca62673ce6f9"></polygon><path d="M116.91,138.5l32.87,28.8c-10.84,2.79-24.13,12.75-24.13,12.75-20-7.39-24.31-27.06-24.31-27.06s9.16-7.78,15.57-14.49" class="f884df51-ef0f-4a09-a8ba-33079e04a15a"></path><rect height="43.04" width="50.42" y="137.02" x="101.34" class="bb405c81-7713-40dd-9c08-eaba128d87d6"></rect><rect height="43.04" width="50.42" y="137.02" x="101.34" class="bb405c81-7713-40dd-9c08-eaba128d87d6"></rect><path d="M149.78,167.3c-10.84,2.79-24.13,12.75-24.13,12.75-20-7.39-24.31-27.06-24.31-27.06s9.16-7.78,15.58-14.49" class="e984f25f-3dd4-4673-80de-73fcaa857f2e"></path><path d="M13.82,186.35l.29,1.46a20.3,20.3,0,0,0,14.05,15.46c11.56,3.48,30.09,6.67,49,0a20.32,20.32,0,0,0,13.41-16.91Z" class="f884df51-ef0f-4a09-a8ba-33079e04a15a"></path><path d="M13.82,186.35l.29,1.46a20.3,20.3,0,0,0,14.05,15.46c11.56,3.48,30.09,6.67,49,0a20.32,20.32,0,0,0,13.41-16.91Z" class="e6515640-1883-44f4-930b-eb7614b6a1df"></path><path d="M90.53,185.73c0-7.17-17.17-13-38.36-13s-38.35,5.82-38.35,13,17.17,13,38.35,13,38.36-5.82,38.36-13" class="f884df51-ef0f-4a09-a8ba-33079e04a15a"></path><path d="M63.31,187c0,2.39-5.26,4.33-11.75,4.33S39.8,189.36,39.8,187s5.26-4.33,11.76-4.33,11.75,1.94,11.75,4.33" class="bdad8416-2c2f-420c-9199-9506feb49218"></path><path d="M13.82,185.73c0,7.18,17.17,13,38.35,13s38.36-5.81,38.36-13-17.17-13-38.36-13-38.35,5.82-38.35,13" class="bb405c81-7713-40dd-9c08-eaba128d87d6"></path><path d="M90.53,185.73c0-7.17-17.17-13-38.36-13s-38.35,5.82-38.35,13,17.17,13,38.35,13S90.53,192.9,90.53,185.73Z" class="e6515640-1883-44f4-930b-eb7614b6a1df"></path><path d="M58.36,178.93a9.9,9.9,0,1,1-9.9-9.9,9.89,9.89,0,0,1,9.9,9.9" class="a9647ddc-6d2d-48c8-ad63-93ebe5b1a915"></path><path d="M38.56,178.93a9.9,9.9,0,1,0,9.9-9.9,9.9,9.9,0,0,0-9.9,9.9" class="bb405c81-7713-40dd-9c08-eaba128d87d6"></path><path d="M55.72,177.29c-.5.69-1.75.64-2.79-.11s-3-3.46-2.52-4.15,1.74-.65,2.78.1,3,3.46,2.53,4.16" class="a90a765d-4aaa-4275-9057-9d3af682dc00"></path><path d="M53.41,175.21a19,19,0,0,1,2.07-3.39,17.34,17.34,0,0,1,2.77-2.91,13.13,13.13,0,0,1,3.49-2.1,12.93,12.93,0,0,1,4-.88.63.63,0,0,1,.67.57.62.62,0,0,1-.56.67h-.11a11.59,11.59,0,0,0-3.73.51,12.69,12.69,0,0,0-3.43,1.72,17.47,17.47,0,0,0-2.9,2.61,19.14,19.14,0,0,0-2.31,3.2" class="a90a765d-4aaa-4275-9057-9d3af682dc00"></path><path d="M65.78,166.55c0,.69.28,1.24.62,1.24s.62-.55.62-1.24-.28-1.23-.62-1.23-.62.55-.62,1.23" class="fa273c30-2613-4e30-9f6b-9ad660525c41"></path><path d="M102.73,202.48s-19.28,6.62-9,15.44c6.93,6,18,3.88,24.4,1.9a11,11,0,0,1,9.25,1.32c7.29,4.82,23.8,10.38,52.44,4.5,35.67-7.32,39.38-9.56,45.56-23,7.18-15.57-36.57-12.3-36.57-12.3Z" class="a10d7fb1-22ea-417d-a0a5-c58f9beb352c"></path><rect height="38.11" width="135.46" y="190.06" x="90.71" class="bb405c81-7713-40dd-9c08-eaba128d87d6"></rect><path d="M217.41,170.14c.66,5.51,2.6,11.43.6,16.57-6.76,17.29-18.53,19.89-31.5,25.5-2.74,1.18-6,2-10.62,3.6-11.62,4-36.18,10.57-56.39-5.61,0,0-18-12.49-13-46.49,2.58-11.61,4-28.51,14.59-37,2.57-2,9.28-4.16,12.36-6,12.55-7,27.54-13,42.55-11,0,0,35.5,4.51,40.5,52.51.28,2.75.58,5.18.91,7.93" class="f884df51-ef0f-4a09-a8ba-33079e04a15a"></path><rect height="111.27" width="112.49" y="109.32" x="105.62" class="bb405c81-7713-40dd-9c08-eaba128d87d6"></rect><rect height="111.27" width="112.49" y="109.32" x="105.62" class="bb405c81-7713-40dd-9c08-eaba128d87d6"></rect><path d="M106.5,163.71c2.58-11.61,4-28.51,14.59-37,2.57-2,9.28-4.16,12.36-6,12.55-7,27.54-13,42.55-11,0,0,35.5,4.51,40.5,52.51.28,2.75.58,5.18.91,7.93.66,5.51,2.1,11.27.6,16.57-3.66,12.88-18.53,19.89-31.5,25.5-2.74,1.18-6,2-10.62,3.6-11.62,4-36.18,10.57-56.39-5.61" class="f25aa561-2ce5-42fa-814f-43ad13c21f15"></path><path d="M119.5,210.2s-18-12.49-13-46.49" class="f25aa561-2ce5-42fa-814f-43ad13c21f15"></path><polyline points="113.98 147.21 111 174.68 115.25 185.21 129 174.68 126.02 147.21" class="f884df51-ef0f-4a09-a8ba-33079e04a15a"></polyline><polyline points="113.98 147.21 111 174.68 115.25 185.21 129 174.68 126.02 147.21" class="ace15ec1-d7dd-44af-8797-5e2dbe9cde4c"></polyline><polygon points="121.41 135.57 111.23 142.71 113.75 136.28 121.41 135.57" class="f884df51-ef0f-4a09-a8ba-33079e04a15a"></polygon><polygon points="121.41 135.57 111.23 142.71 113.75 136.28 121.41 135.57" class="b7b3f082-5451-4772-a294-55381e83e62d"></polygon><path d="M127.12,137.54c-.37,3.22-.73,6.44-1.1,9.67H114l-1.1-9.67,8.2-2.26Z" class="f884df51-ef0f-4a09-a8ba-33079e04a15a"></path><path d="M127.12,137.54c-.37,3.22-.73,6.44-1.1,9.67H114l-1.1-9.67,8.2-2.26Z" class="ace15ec1-d7dd-44af-8797-5e2dbe9cde4c"></path><path d="M143.2,148.49l20.1,30c-11.4,2.42-19.5,13.81-23.54,19.84a14.54,14.54,0,0,1-9.2,6.32c-3.58.69-10.34,2.42-17.29-2.93a10,10,0,0,1-1.67-13.9c1.83-2.44,6-6.24,10.51-13.84,10.3-17.17,21.09-25.51,21.09-25.51" class="f884df51-ef0f-4a09-a8ba-33079e04a15a"></path><rect height="57.01" width="53.77" y="148.49" x="109.53" class="bb405c81-7713-40dd-9c08-eaba128d87d6"></rect><rect height="57.01" width="53.77" y="148.49" x="109.53" class="bb405c81-7713-40dd-9c08-eaba128d87d6"></rect><path d="M163,175.94c-11.39,2.42-19.16,16.38-23.2,22.41a14.54,14.54,0,0,1-9.2,6.32c-3.58.69-10.33,2.42-17.29-2.93a10,10,0,0,1-1.67-13.9c1.83-2.44,6-6.24,10.51-13.84,10.3-17.17,21.09-25.51,21.09-25.51" class="f25aa561-2ce5-42fa-814f-43ad13c21f15"></path><g class="bf64c631-b28f-42b1-bcc0-c0a031225771"><polygon points="171.5 162.21 171.5 168.79 131.5 151.21 144 145.71 171.5 162.21" class="f884df51-ef0f-4a09-a8ba-33079e04a15a"></polygon><path d="M131.5,151.21l40,17.58c-9.5,5.92-19.18,19.42-19.18,19.42-21.27-1-31.32-18.5-31.32-18.5s3-12,10.5-18.5" class="f884df51-ef0f-4a09-a8ba-33079e04a15a"></path><rect height="42.5" width="50.5" y="145.71" x="121" class="bb405c81-7713-40dd-9c08-eaba128d87d6"></rect></g><path d="M171.5,168.79c-9.5,5.92-19.18,19.42-19.18,19.42-21.27-1-31.32-18.5-31.32-18.5s3-12,10.5-18.5" class="e984f25f-3dd4-4673-80de-73fcaa857f2e"></path><polyline points="123.51 135.28 131.77 145.72 156.57 132.93" class="f884df51-ef0f-4a09-a8ba-33079e04a15a"></polyline><polyline points="123.51 135.28 131.77 145.72 156.57 132.93" class="b7b3f082-5451-4772-a294-55381e83e62d"></polyline><path d="M72,56.71l34.73-16.32a7.54,7.54,0,0,1,2.08-.51l87.88-8.14c4.42-.41,8.29,3.23,8.59,8.1L212,96.73a9.37,9.37,0,0,1-1.64,5.94l-18.11,23.48a7.82,7.82,0,0,1-5.24,3.31L86.46,138.82c-4.21.61-8.11-2.51-8.87-7.1l-10-67.8c-.69-4.16.75-5.75,4.37-7.21" class="f884df51-ef0f-4a09-a8ba-33079e04a15a"></path><g class="a7ac5282-9f88-480d-a46e-27a8bdb3ecff"><polyline points="67.5 59.21 179.5 49.21 189.5 128.21" class="f25aa561-2ce5-42fa-814f-43ad13c21f15"></polyline><line y2="49.21" x2="180.5" y1="33.11" x1="201.82" class="f25aa561-2ce5-42fa-814f-43ad13c21f15"></line></g><path d="M72,56.71l34.73-16.32a7.54,7.54,0,0,1,2.08-.51l87.88-8.14c4.42-.41,8.29,3.23,8.59,8.1L212,96.73a9.37,9.37,0,0,1-1.64,5.94l-18.11,23.48a7.82,7.82,0,0,1-5.24,3.31L86.46,138.82c-4.21.61-8.11-2.51-8.87-7.1l-10-67.8C66.94,59.76,68.38,58.17,72,56.71Z" class="f25aa561-2ce5-42fa-814f-43ad13c21f15"></path><path d="M201.57,95.54l1.73-.2a4.69,4.69,0,0,0,4.12-5.19L204.65,65.9a4.71,4.71,0,0,0-5.2-4.13l-1.73.2a4.71,4.71,0,0,0-4.13,5.19l2.78,24.25a4.71,4.71,0,0,0,5.2,4.13" class="f884df51-ef0f-4a09-a8ba-33079e04a15a"></path><path d="M201.57,95.54l1.73-.2a4.69,4.69,0,0,0,4.12-5.19L204.65,65.9a4.71,4.71,0,0,0-5.2-4.13l-1.73.2a4.71,4.71,0,0,0-4.13,5.19l2.78,24.25A4.71,4.71,0,0,0,201.57,95.54Z" class="be7e8406-bfe1-444e-b340-c8ba9395019e"></path><path d="M205.79,87h0a1.84,1.84,0,0,0,1.61-2l-1.47-12.83a1.83,1.83,0,1,0-3.63.41l1.47,12.83a1.83,1.83,0,0,0,2,1.61" class="f884df51-ef0f-4a09-a8ba-33079e04a15a"></path><path d="M205.79,87h0a1.84,1.84,0,0,0,1.61-2l-1.47-12.83a1.83,1.83,0,1,0-3.63.41l1.47,12.83A1.83,1.83,0,0,0,205.79,87Z" class="f040b65d-469e-438d-bd68-01da91674d88"></path><path d="M165.11,56.19l-43.56,8.62a2.68,2.68,0,0,1-1,.12L80.33,63.4c-2-.17-3.58,1.79-3.32,4.11l9.39,63.25c.25,2.32,2.21,3.89,4.12,3.3l36.33-10.73a2.66,2.66,0,0,1,1.05-.12l46.37,2.63c2,.16,3.58-1.79,3.32-4.11l-8.35-62.24c-.26-2.32-2.22-3.89-4.13-3.3" class="f884df51-ef0f-4a09-a8ba-33079e04a15a"></path><path d="M165.11,56.19l-43.56,8.62a2.68,2.68,0,0,1-1,.12L80.33,63.4c-2-.17-3.58,1.79-3.32,4.11l9.39,63.25c.25,2.32,2.21,3.89,4.12,3.3l36.33-10.73a2.66,2.66,0,0,1,1.05-.12l46.37,2.63c2,.16,3.58-1.79,3.32-4.11l-8.35-62.24C169,57.17,167,55.6,165.11,56.19Z" class="e12868e2-7d02-4de7-87fc-d4fc7a5f1e94"></path><path d="M147,11.87a13,13,0,0,0-12.12,13.74,13.2,13.2,0,0,0-26.3,2.14A13,13,0,0,0,122.8,39.34,13.41,13.41,0,0,0,132,34.69l.86,10.49,3.68-.3,3.68-.3-.86-10.49a13.46,13.46,0,0,0,9.79,3.11,13,13,0,0,0,12.11-13.74A13,13,0,0,0,147,11.87M122.4,34.44a7.93,7.93,0,0,1-8.7-7.1A8.1,8.1,0,0,1,129.83,26a7.94,7.94,0,0,1-7.43,8.42m26.3-2.14a8,8,0,0,1-8.7-7.11,8.1,8.1,0,0,1,16.13-1.31,8,8,0,0,1-7.43,8.42" class="f884df51-ef0f-4a09-a8ba-33079e04a15a"></path><path d="M147,11.87a13,13,0,0,0-12.12,13.74,13.2,13.2,0,0,0-26.3,2.14A13,13,0,0,0,122.8,39.34,13.41,13.41,0,0,0,132,34.69l.86,10.49,3.68-.3,3.68-.3-.86-10.49a13.46,13.46,0,0,0,9.79,3.11,13,13,0,0,0,12.11-13.74A13,13,0,0,0,147,11.87ZM122.4,34.44a7.93,7.93,0,0,1-8.7-7.1A8.1,8.1,0,0,1,129.83,26,7.94,7.94,0,0,1,122.4,34.44Zm26.3-2.14a8,8,0,0,1-8.7-7.11,8.1,8.1,0,0,1,16.13-1.31A8,8,0,0,1,148.7,32.3Z" class="f25aa561-2ce5-42fa-814f-43ad13c21f15"></path><path d="M105.26,103c.15,1.47-3.63,3-8.42,3.52s-8.81-.34-9-1.81,3.63-3,8.42-3.51,8.81.33,9,1.8" class="abdbfbf4-a3db-47d1-9ae0-686b6df2a976"></path><path d="M166,97c.14,1.47-3.63,3-8.43,3.51s-8.8-.33-8.94-1.8,3.62-3,8.42-3.52,8.8.34,8.95,1.81" class="abdbfbf4-a3db-47d1-9ae0-686b6df2a976"></path><path d="M156.57,88c.39,6.16-3.79,11.44-9.32,11.79s-10.35-4.36-10.74-10.52,3.78-11.43,9.32-11.79S156.17,81.84,156.57,88" class="a90a765d-4aaa-4275-9057-9d3af682dc00"></path><path d="M152.88,88.24c.25,3.89-2.39,7.23-5.9,7.45s-6.54-2.75-6.79-6.65,2.4-7.23,5.9-7.46,6.54,2.76,6.79,6.66" class="b0cf17bb-33a8-4346-9be6-0dcf4dac7c29"></path><path d="M150.84,88.36a4.34,4.34,0,1,1-4.61-4.51,4.58,4.58,0,0,1,4.61,4.51" class="a90a765d-4aaa-4275-9057-9d3af682dc00"></path><path d="M152.94,82.75a2.88,2.88,0,1,1-3.06-2.7,2.88,2.88,0,0,1,3.06,2.7" class="f884df51-ef0f-4a09-a8ba-33079e04a15a"></path><path d="M142.07,95.75a3.73,3.73,0,0,1-2-2c-.27-.68-.23-1.32.86-1.62s1.36,1.66,3.91,1.6a1.06,1.06,0,0,1,.57,1.87c-.71.8-2,.72-3.34.15" class="f884df51-ef0f-4a09-a8ba-33079e04a15a"></path><path d="M114.85,92c.39,6.16-3.78,11.44-9.32,11.79S95.18,99.4,94.79,93.24s3.79-11.43,9.32-11.78S114.46,85.81,114.85,92" class="a90a765d-4aaa-4275-9057-9d3af682dc00"></path><path d="M111.16,92.21c.25,3.89-2.39,7.23-5.89,7.45S98.73,96.91,98.48,93s2.39-7.23,5.89-7.45,6.55,2.75,6.79,6.65" class="b0cf17bb-33a8-4346-9be6-0dcf4dac7c29"></path><path d="M109.13,92.33a4.34,4.34,0,1,1-4.61-4.51,4.59,4.59,0,0,1,4.61,4.51" class="a90a765d-4aaa-4275-9057-9d3af682dc00"></path><path d="M111.22,86.72a2.88,2.88,0,1,1-3.06-2.7,2.88,2.88,0,0,1,3.06,2.7" class="f884df51-ef0f-4a09-a8ba-33079e04a15a"></path><path d="M100.35,99.72a3.73,3.73,0,0,1-2-2c-.27-.68-.23-1.32.86-1.62,1.24-.34,1.37,1.66,3.91,1.61a1.05,1.05,0,0,1,.58,1.86c-.71.8-2,.72-3.35.15" class="f884df51-ef0f-4a09-a8ba-33079e04a15a"></path><path d="M117,108.71s8,1,8-9c0,0,2,8,11,6" class="f25aa561-2ce5-42fa-814f-43ad13c21f15"></path><path d="M103,75.71s7,0,8-4" class="f25aa561-2ce5-42fa-814f-43ad13c21f15"></path><path d="M144,72.71s-7,1-8-3" class="f25aa561-2ce5-42fa-814f-43ad13c21f15"></path><path d="M144,110.21c0,1.38-.45,2.5-1,2.5s-1-1.12-1-2.5.45-2.5,1-2.5,1,1.12,1,2.5" class="abdbfbf4-a3db-47d1-9ae0-686b6df2a976"></path><path d="M139.5,109.54c-.47.69-1.07,1.09-1.34.91s-.12-.89.34-1.58,1.07-1.09,1.34-.9.12.89-.34,1.57" class="abdbfbf4-a3db-47d1-9ae0-686b6df2a976"></path><path d="M112.2,110.42c-.7.7-1.59.94-2,.53s-.16-1.29.53-2,1.59-.94,2-.53.16,1.29-.53,2" class="abdbfbf4-a3db-47d1-9ae0-686b6df2a976"></path></g></svg>