<svg  class="icon" viewBox="0 0 1024 1024" version="1.1" xmlns="http://www.w3.org/2000/svg"  width="200" height="200"><path d="M312 204.39v410.72c-20.42-9.06-43.54-14.02-68.55-14.02-43.46 0-85.46 18.17-115.24 49.85-30.2 32.13-45.31 74.14-42.57 118.28 4.92 79.33 68.47 142.87 147.8 147.8 3.41 0.21 6.8 0.32 10.18 0.32 40.39 0 78.45-15.03 108.1-42.89 31.68-29.77 49.85-71.77 49.85-115.23 0-13.55-1.47-26.55-4.24-38.87v-263.4l413.33-75.15v138.26c-21.8-11.35-46.56-17.78-72.79-17.78-87.19 0-158.12 70.93-158.12 158.12s70.93 158.12 158.12 158.12c85.44 0 155.26-68.12 158.03-152.9h0.1V98.21L312 204.39z m-18.71 607.88c-14.79 13.9-34.14 20.86-54.56 19.59-35.85-2.23-65.69-32.06-67.92-67.92-1.27-20.4 5.69-39.77 19.59-54.55 13.91-14.8 32.75-22.96 53.05-22.96 53.73 0 72.79 39.21 72.79 72.79 0 20.29-8.15 39.13-22.95 53.05z m104.04-442.06v-94.6l413.33-75.15v94.6l-413.33 75.15z m340.55 362.97c-40.13 0-72.79-32.65-72.79-72.79 0-40.14 32.65-72.79 72.79-72.79 40.13 0 72.79 32.65 72.79 72.79 0 40.14-32.66 72.79-72.79 72.79z" ></path></svg>
