<svg  class="icon" viewBox="0 0 1024 1024" version="1.1" xmlns="http://www.w3.org/2000/svg" p-id="18327" width="200" height="200"><path d="M493.6 540.2C369 540.2 268 439.3 268 314.7S369 89.1 493.6 89.1s225.6 101 225.6 225.6c-0.2 124.5-101.1 225.4-225.6 225.5z m0-384.5c-87.8 0-159 71.2-159 159s71.2 159 159 159 159-71.2 159-159c-0.1-87.8-71.2-158.9-159-159z" p-id="18328"></path><path d="M129.7 932.5c-18.2-0.4-32.7-15.6-32.2-33.8 0-0.7 0.1-1.4 0.1-2.1C129 548.2 376.3 486.5 472 475.6c18.1-1.9 34.3 11.2 36.2 29.2 0.2 1.6 0.2 3.2 0.2 4.7-0.5 16.6-13.3 30.2-29.8 31.7-78.1 7.7-286.9 56.9-314.3 360.7-1.3 17.8-16.6 31.4-34.6 30.6z m361-317.1h325.5c22.2 0 33.3 11.1 33.3 33.3 0 22.2-11.1 33.3-33.3 33.3H490.7c-22.2 0-33.3-11.1-33.3-33.3 0-22.2 11.1-33.3 33.3-33.3z m-38.5 126.4h402.4c22.2 0 33.3 11.1 33.3 33.3 0 22.2-11.1 33.3-33.3 33.3H452.2c-22.2 0-33.3-11.1-33.3-33.3 0-22.2 11.1-33.3 33.3-33.3z m-38.4 126.5h479.4c22.2 0 33.3 11.1 33.3 33.3 0 22.2-11.1 33.3-33.3 33.3H413.8c-22.2 0-33.3-11.1-33.3-33.3 0-22.2 11.1-33.3 33.3-33.3z" ></path></svg>
