<svg  class="icon" viewBox="0 0 1024 1024" version="1.1" xmlns="http://www.w3.org/2000/svg"  width="200" height="200"><path d="M563.192832 1024h-409.6A51.2 51.2 0 0 1 102.392832 972.8v-921.6A51.2 51.2 0 0 1 153.592832 0h569.685333a42.666667 42.666667 0 0 1 30.037334 12.288l155.989333 155.989333a42.666667 42.666667 0 0 1 12.288 30.037334V597.333333h-34.133333V198.314667a8.192 8.192 0 0 0-2.389334-5.802667l-155.989333-155.989333a8.192 8.192 0 0 0-5.802667-2.389334H153.592832a17.066667 17.066667 0 0 0-17.066667 17.066667v921.6a17.066667 17.066667 0 0 0 17.066667 17.066667h409.6z" ></path><path d="M904.526165 204.8h-170.666666a17.066667 17.066667 0 0 1-17.066667-17.066667v-170.666666h34.133333V170.666667h153.6z"  ></path><path d="M204.792832 170.666667h443.733333v34.133333H204.792832zM204.792832 307.2h614.4v34.133333H204.792832zM204.792832 443.733333h614.4v34.133334H204.792832zM204.792832 580.266667h238.933333v34.133333H204.792832zM204.792832 716.8h204.8v34.133333H204.792832z"  ></path><path d="M892.238165 827.392a37.546667 37.546667 0 0 1 0-49.834667l24.576-27.306666a19.114667 19.114667 0 0 0 2.048-22.528l-40.96-72.021334a20.48 20.48 0 0 0-20.821333-9.557333l-35.84 7.509333a37.888 37.888 0 0 1-43.349333-25.258666l-11.605334-34.133334a19.114667 19.114667 0 0 0-18.090666-13.312h-82.944a19.114667 19.114667 0 0 0-18.432 13.312l-11.946667 34.133334a37.888 37.888 0 0 1-43.349333 24.917333l-35.84-7.509333a19.797333 19.797333 0 0 0-20.821334 9.216l-41.642666 71.68a19.114667 19.114667 0 0 0 2.389333 22.528l24.234667 27.648a37.546667 37.546667 0 0 1 0 49.834666l-24.234667 27.306667a19.114667 19.114667 0 0 0-2.389333 22.528l41.301333 72.021333a18.773333 18.773333 0 0 0 20.48 9.557334l36.181333-7.168a37.205333 37.205333 0 0 1 43.008 24.917333l11.605334 34.133333a19.114667 19.114667 0 0 0 18.432 13.312h82.944a19.797333 19.797333 0 0 0 18.432-13.312l11.605333-34.133333a37.546667 37.546667 0 0 1 41.984-24.576l34.133333 7.168a19.114667 19.114667 0 0 0 20.821334-9.216l41.642666-71.68a19.456 19.456 0 0 0-2.048-22.528z m-168.277333 46.421333a74.069333 74.069333 0 1 1 53.589333-54.613333 73.045333 73.045333 0 0 1-53.589333 54.613333z"  ></path></svg>
