<svg t="1645627355050" class="icon" viewBox="0 0 1433 1024" version="1.1" xmlns="http://www.w3.org/2000/svg" p-id="2224" width="32" height="32"><path d="M128 153.6V76.8a76.8 76.8 0 0 1 76.8-76.8h1152a76.8 76.8 0 0 1 76.8 76.8v716.8a76.8 76.8 0 0 1-76.8 76.8h-76.8v76.8a76.8 76.8 0 0 1-76.8 76.8H76.8a76.8 76.8 0 0 1-76.8-76.8V230.4a76.8 76.8 0 0 1 76.8-76.8h51.2z m51.2 0h1024a76.8 76.8 0 0 1 76.8 76.8v588.8h76.8a25.6 25.6 0 0 0 25.6-25.6V76.8a25.6 25.6 0 0 0-25.6-25.6H204.8a25.6 25.6 0 0 0-25.6 25.6v76.8zM76.8 204.8a25.6 25.6 0 0 0-25.6 25.6v716.8a25.6 25.6 0 0 0 25.6 25.6h1126.4a25.6 25.6 0 0 0 25.6-25.6V230.4a25.6 25.6 0 0 0-25.6-25.6H76.8z m384 358.4a128 128 0 1 1 0-256 128 128 0 0 1 0 256z m0-51.2a76.8 76.8 0 1 0 0-153.6 76.8 76.8 0 0 0 0 153.6zM153.9584 828.4672c7.5264-141.2864 139.264-251.5456 298.112-251.5456 158.848 0 290.56 110.2592 298.112 251.5456l-0.256 5.2736a51.2 51.2 0 0 1-50.6112 43.3664H204.8256a51.2 51.2 0 0 1-50.5856-43.3664l-0.256-5.2736z m544.7424-2.56c-9.0624-110.1568-115.8144-197.7856-246.6304-197.7856s-237.568 87.6288-246.6048 197.7856h493.2352zM691.2 384a25.6 25.6 0 0 1 0-51.2h25.6a25.6 25.6 0 0 1 0 51.2h-25.6z m128 0a25.6 25.6 0 0 1 0-51.2h25.6a25.6 25.6 0 0 1 0 51.2h-25.6z m128 0a25.6 25.6 0 0 1 0-51.2h25.6a25.6 25.6 0 0 1 0 51.2h-25.6z m128 0a25.6 25.6 0 0 1 0-51.2h25.6a25.6 25.6 0 0 1 0 51.2h-25.6z m-196.48 230.4a25.6 25.6 0 1 1 0-51.2h224.3072a25.6 25.6 0 0 1 0 51.2h-224.3072z m0 128a25.6 25.6 0 1 1 0-51.2h224.3072a25.6 25.6 0 0 1 0 51.2h-224.3072z m6.0928 128a25.6 25.6 0 1 1 0-51.2h224.3072a25.6 25.6 0 0 1 0 51.2h-224.3072z" fill="#8a8a8a" ></path></svg>
